<?xml version="1.0" standalone="no"?>
<!DOCTYPE svg PUBLIC "-//W3C//DTD SVG 20010904//EN"
 "http://www.w3.org/TR/2001/REC-SVG-20010904/DTD/svg10.dtd">
<svg version="1.0" xmlns="http://www.w3.org/2000/svg"
 width="830.000000pt" height="830.000000pt" viewBox="0 0 830.000000 830.000000"
 preserveAspectRatio="xMidYMid meet">
<metadata>
Created by potrace 1.11, written by Peter Selinger 2001-2013
</metadata>
<g transform="translate(0.000000,830.000000) scale(0.100000,-0.100000)"
fill="#000000" stroke="none">
<path d="M3082 5881 c0 -828 3 -1111 12 -1112 6 0 219 -3 474 -5 l462 -4 0
644 c0 506 3 645 13 648 19 7 426 2 492 -6 33 -4 80 -12 105 -17 25 -6 52 -12
60 -14 156 -34 318 -152 387 -281 64 -120 89 -288 69 -454 -12 -103 -15 -118
-40 -184 -68 -181 -212 -306 -420 -366 -36 -10 -66 -17 -66 -15 0 3 -12 0 -26
-5 -32 -13 -155 -22 -304 -24 l-115 -1 0 -477 -1 -476 24 -5 c60 -12 500 0
582 16 261 49 437 115 620 234 171 112 316 251 432 413 115 161 216 392 252
575 32 165 39 234 39 420 1 159 -8 273 -27 362 -8 38 -16 73 -22 100 -2 12
-17 59 -33 105 -122 356 -372 648 -705 822 -79 42 -263 114 -333 131 -131 32
-249 55 -358 70 -27 4 -393 9 -812 12 l-761 4 0 -1110z"/>
<path d="M1672 5529 c-154 -29 -264 -168 -257 -326 9 -227 256 -372 462 -272
l44 21 117 -115 c64 -64 179 -177 254 -251 l137 -136 796 0 795 0 0 45 c0 40
-3 45 -22 46 -13 0 -361 2 -775 2 l-752 2 -240 234 -240 235 26 45 c31 56 38
87 38 171 -2 193 -185 336 -383 299z m117 -94 c99 -17 186 -134 176 -238 -9
-85 -79 -169 -162 -193 -84 -24 -153 -9 -217 47 -54 47 -74 93 -79 174 -3 66
54 155 123 190 31 16 109 35 121 29 3 -2 20 -6 38 -9z"/>
<path d="M978 4659 c-120 -19 -237 -129 -255 -243 -8 -47 -7 -107 1 -145 17
-80 86 -167 163 -205 21 -10 45 -22 54 -26 8 -4 51 -8 95 -8 122 0 200 42 279
151 l21 29 464 -1 c256 0 481 0 501 0 33 -1 54 -19 275 -236 l239 -235 625 3
625 2 1 61 0 60 -600 1 -601 1 -240 235 -239 236 -504 0 c-277 -1 -508 3 -512
8 -5 4 -11 28 -15 52 -25 174 -192 289 -377 260z m131 -100 c93 -28 155 -114
154 -214 -1 -85 -38 -148 -111 -192 -61 -35 -156 -38 -218 -5 -113 58 -155
186 -99 299 23 46 59 79 118 110 28 14 112 15 156 2z"/>
<path d="M5799 3978 c-1 -7 -2 -187 -2 -401 l-2 -387 25 -1 c117 -4 307 4 365
16 139 29 251 109 297 211 25 58 29 76 33 156 11 210 -105 351 -331 404 -16 4
-109 9 -206 11 -145 4 -178 2 -179 -9z m386 -96 c153 -46 227 -148 221 -304
-6 -169 -87 -254 -277 -293 -23 -5 -85 -7 -159 -6 l-65 1 2 303 c1 166 2 306
2 310 1 11 236 1 276 -11z"/>
<path d="M7079 3988 c-1 -1 -2 -182 -3 -400 -1 -261 2 -398 9 -399 77 -5 95
-3 96 11 1 8 3 76 4 150 1 74 3 142 4 151 1 14 13 17 66 17 41 0 68 -5 73 -13
6 -11 44 -58 92 -115 8 -9 49 -58 90 -109 63 -76 80 -91 105 -92 35 -1 68 1
74 6 2 3 -142 199 -159 215 -27 26 -89 114 -84 121 3 5 15 9 27 9 41 0 130 54
159 95 53 76 52 185 -3 253 -25 32 -104 77 -154 88 -32 7 -394 18 -396 12z
m396 -114 c54 -27 78 -63 78 -119 0 -56 -23 -90 -78 -119 -32 -17 -64 -21
-165 -24 l-126 -4 1 146 0 146 126 -3 c99 -3 133 -8 164 -23z"/>
<path d="M2500 3219 l-241 -236 -490 0 -489 0 -6 26 c-34 164 -204 277 -369
246 -131 -25 -223 -107 -257 -230 -54 -189 82 -381 281 -398 135 -12 254 53
319 175 l29 53 516 0 516 0 36 35 c20 19 129 126 242 238 l206 202 849 0 850
0 71 -31 c40 -18 95 -42 122 -54 28 -13 165 -73 305 -135 140 -62 282 -125
315 -140 33 -15 93 -42 134 -60 l74 -32 1206 1 c663 0 1291 0 1394 0 l188 1
-3 63 -3 62 -1380 1 c-944 0 -1388 4 -1405 11 -14 6 -55 25 -93 42 -37 17 -69
31 -72 31 -2 0 -37 15 -77 34 -40 19 -224 101 -408 182 l-335 149 -892 0 -892
0 -241 -236z m-1472 -64 c61 -19 115 -68 142 -131 37 -85 19 -166 -50 -235
-117 -117 -306 -82 -371 69 -52 120 9 252 139 298 49 17 78 17 140 -1z"/>
<path d="M6700 3249 c0 -65 4 -67 87 -61 l41 4 1 57 0 57 -65 0 -64 1 0 -58z"/>
<path d="M7909 3301 c-1 -3 -2 -30 -3 -58 -2 -58 -6 -55 69 -55 19 0 40 1 45
1 6 1 10 27 10 59 l0 58 -60 1 c-33 0 -61 -2 -61 -6z"/>
<path d="M5853 2709 c-83 -15 -134 -59 -138 -117 -4 -68 44 -102 191 -133 55
-12 105 -21 112 -22 18 -1 62 -43 62 -61 0 -18 -45 -72 -62 -74 -140 -15 -226
10 -242 72 -4 18 -12 22 -43 21 -44 -1 -47 -9 -25 -55 33 -67 109 -100 232
-100 127 0 213 55 213 135 0 80 -74 124 -257 150 -81 11 -119 46 -97 88 17 31
67 46 141 43 64 -4 105 -23 115 -56 3 -11 12 -20 18 -21 7 -1 24 -2 40 -3 31
-3 34 11 13 53 -34 65 -156 101 -273 80z"/>
<path d="M6275 2703 c-11 -3 -12 -439 -1 -450 9 -10 58 -6 65 5 3 5 5 87 4
181 0 94 1 171 3 171 3 0 12 -17 21 -37 8 -21 23 -56 33 -78 9 -22 36 -86 60
-142 31 -77 47 -103 61 -104 10 -1 27 -2 36 -3 17 -1 49 66 133 274 19 47 37
89 41 94 4 4 7 -75 6 -178 -2 -171 -1 -186 16 -187 9 -1 25 -2 35 -3 16 -1 17
17 20 229 l2 230 -55 2 c-42 1 -57 -2 -64 -15 -11 -20 -119 -283 -136 -331 -7
-18 -15 -30 -18 -25 -3 5 -35 83 -72 174 -37 91 -71 172 -75 180 -8 14 -87 23
-115 13z"/>
<path d="M7100 2695 c-4 -5 -37 -71 -73 -145 -35 -74 -82 -172 -105 -217 -40
-83 -40 -85 3 -85 8 0 21 0 29 1 8 0 26 30 41 66 16 36 31 66 34 66 3 1 58 3
122 4 l116 1 35 -70 c35 -71 35 -71 77 -71 22 0 41 2 41 4 0 4 -81 165 -174
344 l-60 118 -39 -3 c-21 -1 -42 -7 -47 -13z m135 -254 c-3 -5 -145 -7 -177
-2 -4 1 10 38 31 84 21 45 41 91 45 102 7 16 17 2 57 -79 27 -54 47 -102 44
-105z"/>
<path d="M7493 2481 l0 -229 27 -4 c47 -7 50 -2 50 98 0 106 -10 97 100 95
122 -2 134 -9 190 -124 32 -66 37 -71 68 -72 18 -1 35 2 38 6 10 17 -64 157
-94 179 l-31 23 40 20 c59 29 75 59 70 135 -1 24 -45 74 -76 87 -11 4 -101 9
-201 11 l-181 4 0 -229z m342 158 c41 -20 51 -71 21 -106 -23 -27 -63 -35
-176 -35 -122 1 -110 -8 -110 75 0 41 2 76 5 78 11 12 232 1 260 -12z"/>
<path d="M8039 2699 c-6 -45 -8 -44 92 -47 l95 -3 -1 -199 0 -198 26 -4 c50
-8 49 -10 49 232 l0 228 -130 0 c-71 0 -131 -4 -131 -9z"/>
</g>
</svg>
