<?xml version="1.0" standalone="no"?>
<!DOCTYPE svg PUBLIC "-//W3C//DTD SVG 20010904//EN"
 "http://www.w3.org/TR/2001/REC-SVG-20010904/DTD/svg10.dtd">
<svg version="1.0" xmlns="http://www.w3.org/2000/svg"
 width="128.000000pt" height="128.000000pt" viewBox="0 0 128.000000 128.000000"
 preserveAspectRatio="xMidYMid meet">
<metadata>
Created by potrace 1.11, written by Peter Selinger 2001-2013
</metadata>
<g transform="translate(0.000000,128.000000) scale(0.100000,-0.100000)"
fill="#000000" stroke="none">
<path d="M344 1250 c-27 -10 -66 -72 -69 -108 -1 -15 -5 -34 -8 -42 -21 -47
-64 -189 -60 -194 3 -3 1 -11 -5 -18 -5 -7 -13 -47 -17 -88 l-7 -75 47 -27
c25 -16 51 -28 56 -28 7 0 8 -7 4 -17 -48 -117 -44 -217 11 -299 21 -30 25
-45 20 -76 -19 -125 -21 -113 20 -158 47 -52 129 -100 171 -100 31 0 32 1 38
53 10 77 11 79 77 65 41 -9 71 -9 114 -1 67 12 78 6 130 -69 40 -57 66 -50
115 30 36 61 37 65 24 102 -7 21 -20 51 -29 67 -13 26 -13 35 -1 69 8 21 14
54 15 71 0 27 5 34 28 39 62 15 82 32 82 70 0 46 -26 147 -50 194 -40 78 -130
133 -235 145 -33 3 -72 11 -87 17 -15 5 -51 13 -80 17 l-53 7 63 65 c51 51 62
67 53 79 -23 31 -44 86 -49 129 -4 38 -9 45 -41 59 -22 10 -66 16 -113 16 -43
0 -78 4 -78 8 0 10 -59 9 -86 -2z m76 -20 c0 -5 16 -10 35 -10 19 0 35 5 35
10 0 11 39 7 110 -11 34 -8 37 -12 52 -76 8 -38 15 -69 14 -70 0 -1 -24 3 -51
8 -28 6 -82 8 -122 4 l-71 -6 -45 75 c-25 41 -43 77 -40 80 11 10 83 7 83 -4z
m-51 -93 l41 -68 -40 -66 c-50 -83 -77 -155 -92 -243 l-12 -69 -38 21 c-32 19
-38 26 -34 48 3 14 8 46 11 73 4 32 11 47 21 47 11 0 12 4 5 19 -8 14 -3 41
18 106 16 48 35 91 41 95 7 4 9 16 6 28 -6 18 20 90 29 80 1 -1 21 -34 44 -71z
m346 -612 c29 -57 28 -196 -1 -245 -11 -20 -29 -36 -42 -38 -66 -10 -87 242
-25 310 24 27 45 19 68 -27z m183 -91 c8 -143 -51 -250 -74 -136 -5 25 -3 32
7 30 9 -2 15 8 17 31 4 39 -13 64 -29 41 -10 -15 -9 -9 7 68 3 15 12 38 21 51
14 22 16 22 31 7 12 -11 18 -39 20 -92z"/>
<path d="M641 384 c-12 -44 -5 -84 15 -84 35 0 47 111 12 118 -12 2 -20 -7
-27 -34z"/>
</g>
</svg>
